<?xml version="1.0" encoding="UTF-8" standalone="no"?>
<svg width="56px" height="56px" viewBox="0 0 56 56" version="1.1" xmlns="http://www.w3.org/2000/svg" xmlns:xlink="http://www.w3.org/1999/xlink">
    <!-- Generator: Sketch 41.2 (35397) - http://www.bohemiancoding.com/sketch -->
    <title>Reload</title>
    <desc>Created with Sketch.</desc>
    <defs></defs>
    <g id="Page-1" stroke="none" stroke-width="1" fill="none" fill-rule="evenodd">
        <g id="Reload" transform="translate(-1.000000, 0.000000)" fill="#000000">
            <path d="M28.6,55.6 C27,55.6 25.4,55.5 23.8,55.2 C8.8,52.6 -1.2,38.2 1.4,23.2 C2.7,15.9 6.7,9.6 12.7,5.4 C18.7,1.2 26.1,-0.5 33.3,0.8 C41.4,2.2 48.4,7.2 52.5,14.4 L49.9,15.9 C46.3,9.5 40,5.1 32.8,3.8 C26.3,2.7 19.8,4.1 14.4,7.9 C9,11.7 5.4,17.3 4.3,23.8 C1.9,37.2 10.9,49.9 24.2,52.3 C30.7,53.4 37.2,52 42.6,48.2 C48,44.4 51.6,38.8 52.7,32.3 L55.7,32.8 C54.4,40.1 50.4,46.4 44.4,50.6 C39.7,53.9 34.2,55.6 28.6,55.6 Z" id="Shape"></path>
            <polygon id="Shape" points="51.2 17.1 38 15.9 38.3 12.9 50.3 14 50.3 14 53.5 2.3 56.4 3 53 15.8"></polygon>
        </g>
    </g>
</svg>